<svg width="104.4" height="122.88" xmlns="http://www.w3.org/2000/svg" data-name="Layer 1">
 <title>interactivity</title>

 <g>
  <title>Layer 1</title>
  <path id="svg_1" d="m99.22,55.85l-0.06,-0.23a8,8 0 1 0 -11.87,9.1l0.12,0.06a8,8 0 0 0 6,0.83l0.24,-0.06a8,8 0 0 0 5.59,-9.7l-0.02,0zm-74.61,-7.7l10.65,-1.24a19.75,19.75 0 0 1 2.63,-8.76l0.11,-0.15a19,19 0 0 1 1.72,-2.46l-7.26,-8.25a12.75,12.75 0 0 1 -3.59,1.57l0,0a13,13 0 0 1 -15.87,-9.17l0,0a12.87,12.87 0 0 1 1.31,-9.8l0,0a13,13 0 1 1 22.46,13c-0.15,0.26 -0.31,0.51 -0.48,0.76l7.32,8.32a19.83,19.83 0 0 1 17.09,-2.97l2.8,-6.26a12.69,12.69 0 1 1 18.69,-3.74l0,0a12.68,12.68 0 0 1 -13.9,6l-2.75,6.17a19.88,19.88 0 0 1 9.25,19.16l5.21,1.43c0.07,-0.15 0.15,-0.29 0.23,-0.43a13,13 0 0 1 23.77,3.13l0,0a13,13 0 0 1 -9.19,15.86l0,0a13,13 0 0 1 -9.81,-1.31l-0.21,-0.01a12.93,12.93 0 0 1 -6.3,-12.1l-5,-1.34a19.29,19.29 0 0 1 -0.89,1.9a19.8,19.8 0 0 1 -11.14,9.45a2.47,2.47 0 0 1 -0.46,0.09l0,2a1.61,1.61 0 0 1 0.4,0l2.34,0a1.72,1.72 0 0 1 0.39,0c2.81,0.45 4.21,2.32 4.87,4.75a1.73,1.73 0 0 1 0.91,-0.26l2.34,0a1.58,1.58 0 0 1 0.38,0c3,0.47 4.39,2.56 5,5.22a1.74,1.74 0 0 1 0.45,-0.06l2.34,0a1.74,1.74 0 0 1 0.39,0c6.42,1 6.33,9.29 6.27,14.69c0,2.49 0.1,5 0.13,7.47c-0.29,5.82 -2.93,10.36 -5.64,15l-0.23,0.4a14.33,14.33 0 0 1 -4.18,4.8a9.39,9.39 0 0 1 -5.35,1.7l-20.21,0a5.31,5.31 0 0 1 -4.74,-2.56a13.93,13.93 0 0 1 -1.86,-5.63l-12.67,-19.16a22.69,22.69 0 0 1 -2.53,-4.29a12.44,12.44 0 0 1 -1.1,-4.07a8.33,8.33 0 0 1 0.59,-4a4.82,4.82 0 0 1 2.61,-2.57a6,6 0 0 1 3.4,-0.25a9.48,9.48 0 0 1 4.12,2l4.36,3.58l1.41,1.15l0,-21.82a2.77,2.77 0 0 1 -0.93,-0.38a19.83,19.83 0 0 1 -8.36,-11.5c-0.09,-0.33 -0.17,-0.66 -0.24,-1l-10.3,1.2a12.83,12.83 0 0 1 -1.59,5.32l-0.08,0.15a12.69,12.69 0 0 1 -17.19,4.72l-0.15,-0.08a12.66,12.66 0 0 1 -4.72,-17.19l0.08,-0.15a12.68,12.68 0 0 1 17.19,-4.72l0.15,0.08a12.65,12.65 0 0 1 5.56,6.61zm-15.74,11.26a7.87,7.87 0 0 0 10.64,-2.95l0.07,-0.11a7.87,7.87 0 0 0 -2.95,-10.64l-0.11,-0.06a7.87,7.87 0 0 0 -10.64,3l-0.07,0.1a7.91,7.91 0 0 0 3,10.65l0.11,0.06l-0.05,-0.05zm65.13,40.25a1.39,1.39 0 0 1 2.77,0l0,6.34a1.39,1.39 0 0 1 -2.77,0l0,-6.34zm-8.19,-2.79a1.39,1.39 0 1 1 2.77,0l0,9.13a1.39,1.39 0 0 1 -2.77,0l0,-9.13zm-20.62,-5.61a1.51,1.51 0 0 1 -0.26,-0.18c-0.85,-0.67 -2.08,-1.67 -3.29,-2.66l-4.38,-3.6a6.08,6.08 0 0 0 -2.61,-1.31a2.69,2.69 0 0 0 -1.48,0.06a1.55,1.55 0 0 0 -0.79,0.82a5,5 0 0 0 -0.3,2.38a9.11,9.11 0 0 0 0.82,2.94a20,20 0 0 0 2.15,3.63l12.95,19.66a1.7,1.7 0 0 1 0.27,0.74a11.29,11.29 0 0 0 1.37,4.7a2.11,2.11 0 0 0 1.89,1.07l20.26,0a6.07,6.07 0 0 0 3.44,-1.11a11.14,11.14 0 0 0 3.16,-3.69l0.24,-0.42c2.5,-4.31 4.93,-8.5 5.19,-13.47l-0.13,-5.82a2,2 0 0 1 0,-0.25l0,-1.35c0,-4.22 0.12,-10.68 -3.39,-11.31l-2.3,0c0.07,1.81 0,3.67 -0.13,5.36c0,1 -0.11,1.93 -0.11,2.79a1.7,1.7 0 0 1 -3.39,0c0,-0.81 0.06,-1.85 0.12,-3c0.24,-4.21 0.56,-9.83 -2.38,-10.39l-2.2,0a1.54,1.54 0 0 1 -0.43,-0.05a49.22,49.22 0 0 1 -0.09,6.09c-0.06,1 -0.11,1.93 -0.11,2.79a1.7,1.7 0 0 1 -3.39,0c0,-0.81 0.06,-1.85 0.12,-3c0.24,-4.2 0.55,-9.82 -2.38,-10.38l-2.23,0a1.61,1.61 0 0 1 -0.44,-0.06l0,8.76a1.7,1.7 0 0 1 -3.39,0l0,-22.1c0,-3 -1.21,-4.82 -2.74,-5.59a3.92,3.92 0 0 0 -1.78,-0.43a4,4 0 0 0 -1.76,0.42c-1.52,0.78 -2.71,2.65 -2.71,5.67l0,35.42a1.7,1.7 0 0 1 -3.39,0l0,-3.13zm0,-32.52c0.07,-4.36 2.05,-7.18 4.57,-8.46a7.3,7.3 0 0 1 3.29,-0.78a7.2,7.2 0 0 1 3.3,0.79c2.58,1.3 4.61,4.2 4.61,8.61l0,2.47a14.54,14.54 0 1 0 -18.4,-20.7l-0.08,0.14a14.49,14.49 0 0 0 -1.44,11a14.6,14.6 0 0 0 4.15,6.91l0,0.02zm-12.72,-38.39a8,8 0 0 0 -13.94,-8l0,0a8,8 0 0 0 -0.83,6l0.06,0.24a8,8 0 0 0 9.7,5.6l0.24,-0.07a8,8 0 0 0 4.77,-3.71l0,-0.06zm45.53,-3.72a7.87,7.87 0 1 0 -4.78,3.67a7.88,7.88 0 0 0 4.78,-3.67z"/>
 </g>
</svg>